<svg xmlns="http://www.w3.org/2000/svg" viewBox="0 0 410 404"><path d="M399.641 59.5246L215.643 388.545c-3.79 6.096-12.682 6.129-16.518.062L10.389 59.5563c-4.093-6.476 1.44-14.715 8.987-13.365l187.459 33.43a9.31 9.31 0 003.316.006l183.54-33.39c7.52-1.388 13.09 6.807 9.95 13.297z" fill="url(#paint0_linear)"/><path d="M292.965 1.5744l-134.0115 26.2625a4.614 4.614 0 00-3.7326 4.26l-8.2475 139.3245a4.614 4.614 0 005.6538 4.759l37.3258-8.6122a4.614 4.614 0 015.569 5.4058l-11.0876 54.3013a4.614 4.614 0 005.9203 5.3193l23.0561-7.0045a4.614 4.614 0 015.9205 5.3214l-17.6315 85.346c-1.8418 8.9196 9.998 13.7927 14.943 6.1516L291.1475 228.74a4.614 4.614 0 00-5.035-6.9115l-38.4355 7.4262a4.614 4.614 0 01-5.402-5.8257l25.087-86.9694a4.614 4.614 0 00-4.435-5.9119l-42.5755-.8115a4.614 4.614 0 01-3.756-7.3031L293.718 10.2094c5.465-7.4864-2.1035-17.2094-10.828-14.765z" fill="url(#paint1_linear)"/><defs><linearGradient id="paint0_linear" x1="6.0003" y1="32.9999" x2="235" y2="344" gradientUnits="userSpaceOnUse"><stop stop-color="#41D1FF"/><stop offset="1" stop-color="#BD34FE"/></linearGradient><linearGradient id="paint1_linear" x1="194.651" y1="8.81818" x2="236.076" y2="292.989" gradientUnits="userSpaceOnUse"><stop stop-color="#FFEA83"/><stop offset=".0833" stop-color="#FFDD35"/><stop offset="1" stop-color="#FFA800"/></linearGradient></defs></svg>
